#!OML:ASF E:\acrobat2\Project_11_07_03\Capture day 1\Session 1\Acrobat.ASF
:FULLY-SPECIFIED
:DEGREES
2409
root 11.1529 4.15172 10.6304 -82.5439 2.91446 168.791
lowerback -11.829916166753684 -2.8285496859277734 -4.680116628355362
upperback -9.40592674878116 -10.142252332318412 11.631678526356184
thorax -2.977243383356694 -5.277357649450987 10.695275837610392
lowerneck -4.4847341130851275 -16.955575614129064 14.359364750303365
upperneck -30.309298618547537 -24.44512140515173 1.1610878241198943
head -11.258221966088437 -6.932765106039399 -1.787549762239236
rclavicle 2.38542e-15 -1.58034e-14
rhumerus -5.250179088140925 -11.70766508855911 57.196617106685466
rradius 44.54090525251092
rwrist -27.175693363969383
rhand -27.157278154332793 -35.61736018944194
rfingers 6.353163022433172
rthumb 6.820847617083121 -70.14094884003195
lclavicle 2.38542e-15 -1.58034e-14
lhumerus -21.367821516585057 7.455452670467981 -61.847569861917066
lradius 47.18440847355103
lwrist 29.09562437162178
lhand -14.418353642837499 -30.201698593516593
lfingers 10.499250732444784
lthumb 8.342438888198606 -5.687577597885844
rfemur 2.592481878501302 1.951536705730385 -2.251966125555881
rtibia 60.00267369108656
rfoot 9.593229169873213 -11.579199869824226
rtoes 36.63445716874458
lfemur -8.062615319137533 -12.764713060351863 2.8343966350759513
ltibia 36.81831386907301
lfoot 52.287901653250394 3.2500931840961247
ltoes 4.47688
2410
root 11.1529 4.15172 10.6304 -82.5439 2.91446 168.791
lowerback -11.748661106379522 -2.8161368814082315 -4.658723280844667
upperback -9.320112115821635 -10.144325896390448 11.580445927931445
thorax -3.0427145721502087 -5.357519280506078 10.631208292191154
lowerneck -4.530330780283919 -16.86424881387526 14.443305770623736
upperneck -30.277645008863136 -24.472299720751934 1.1894405747311363
head -11.196694782624878 -6.912297645030742 -1.8001683431094968
rclavicle 2.38542e-15 -1.58034e-14
rhumerus -7.274133580395585 -16.044847477508643 56.83776014279775
rradius 43.42081528719242
rwrist -27.23958964611099
rhand -27.150830160823418 -35.68137244643235
rfingers 6.258476251828429
rthumb 6.827584236501105 -70.16051669795715
lclavicle 2.38542e-15 -1.58034e-14
lhumerus -19.53546095998926 11.342728739047997 -57.44381231714919
lradius 49.65410130581207
lwrist 29.12631646009227
lhand -14.339627205360767 -30.301076900089214
lfingers 10.531103725485266
lthumb 8.251807342706428 -5.761585455675908
rfemur 2.2353395149817197 2.2841834909898453 -1.9442943981074652
rtibia 55.303433876053596
rfoot 9.679844001415674 -11.385202741085235
rtoes 36.460350868721704
lfemur -8.26558167456767 -12.788346933169668 3.1870166464904
ltibia 40.815024746737315
lfoot 52.02453537547473 2.9100195503956456
ltoes 4.47688
2411
root 11.1529 4.15172 10.6304 -82.5439 2.91446 168.791
lowerback -11.75172032736874 -2.746224279989219 -4.639445437640345
upperback -9.380767270991726 -10.109992447802375 11.5169732297101
thorax -3.1423612755778327 -5.335759120815888 10.598148303574837
lowerneck -4.479011032193138 -16.876637770828218 14.47829973936038
upperneck -30.281782094411916 -24.412116193644952 1.1238405371330347
head -11.12835052219678 -6.904911755888125 -1.860947896499886
rclavicle 2.38542e-15 -1.58034e-14
rhumerus -7.22274136349928 -20.321649540737866 54.360691574629065
rradius 41.561168226316525
rwrist -27.27612675855028
rhand -27.240277566339714 -35.77271022409256
rfingers 6.313454250401476
rthumb 6.8108211954507185 -70.20002900251623
lclavicle 2.38542e-15 -1.58034e-14
lhumerus -20.546818548587964 16.334568602229275 -58.59267675684937
lradius 50.42702771333556
lwrist 29.204489874581295
lhand -14.279092345790227 -30.308313173535776
lfingers 10.44505596660401
lthumb 8.199704531511259 -5.7828096224606504
rfemur 2.535678904769525 2.1581390036184485 -1.650856724766446
rtibia 60.297724391757114
rfoot 10.009111918178988 -11.493453783241742
rtoes 36.46150571298367
lfemur -8.175609004970827 -12.66774202665757 2.911041883978641
ltibia 39.68409819546043
lfoot 51.93560331981141 2.9803953202450955
ltoes 4.47688
2412
root 11.1529 4.15172 10.6304 -82.5439 2.91446 168.791
lowerback -11.72155759774626 -2.844091601648599 -4.721018355774623
upperback -9.46115385419138 -10.186232373742696 11.577867403684987
thorax -3.0815012761155627 -5.3442932744048415 10.538320595246477
lowerneck -4.404487680764593 -16.969956479973746 14.52117366224262
upperneck -30.316131342759938 -24.48722095902481 1.164014933796675
head -11.224582692750229 -6.871032912483059 -1.941932617527678
rclavicle 2.38542e-15 -1.58034e-14
rhumerus -9.081011206994539 -23.37710904555378 52.627379494625885
rradius 41.208019743768574
rwrist -27.304115513873583
rhand -27.221863266846718 -35.818701235238684
rfingers 6.238709660439082
rthumb 6.746821964758972 -70.26040816349112
lclavicle 2.38542e-15 -1.58034e-14
lhumerus -21.22004678880471 18.563788018258894 -55.460907291402734
lradius 50.06182686844631
lwrist 29.22499657387706
lhand -14.350626304029655 -30.209195972031207
lfingers 10.509868120298961
lthumb 8.217010108878632 -5.850461318618031
rfemur 2.8202076833389875 1.9441045252508613 -1.703278690156791
rtibia 58.687546806965415
rfoot 10.165438746431615 -11.668670885295814
rtoes 36.57639919177877
lfemur -8.116685611270036 -13.01987349456613 3.1317541503782746
ltibia 34.938195657979605
lfoot 52.31812357963034 2.6723812347947304
ltoes 4.47688
2413
root 11.1529 4.15172 10.6304 -82.5439 2.91446 168.791
lowerback -11.817453986905367 -2.8814248784372714 -4.693072503587172
upperback -9.402868317284286 -10.211123382973172 11.571895416223217
thorax -3.075230753226243 -5.304356634106058 10.530322275471995
lowerneck -4.427875860234461 -16.96188088035556 14.59144863380141
upperneck -30.35871793433554 -24.58350115768323 1.23232473860278
head -11.160062111503237 -6.955037672567605 -1.8640055170513106
rclavicle 2.38542e-15 -1.58034e-14
rhumerus -8.933683234640004 -19.182394706780087 51.210060277914536
rradius 38.96056036457391
rwrist -27.384135785231805
rhand -27.137686260509586 -35.796117019785896
rfingers 6.31075213115473
rthumb 6.71961693150679 -70.19600907551086
lclavicle 2.38542e-15 -1.58034e-14
lhumerus -18.937902067363794 14.201497772491791 -60.191515132961605
lradius 49.919963052002046
lwrist 29.146653623321367
lhand -14.27811159584693 -30.197609581190445
lfingers 10.55488925002667
lthumb 8.225785358510578 -5.762164032642935
rfemur 2.524946709015583 2.385827959416144 -1.4383908113566213
rtibia 63.3008825352737
rfoot 9.84769916421821 -11.539739552668111
rtoes 36.5408043623045
lfemur -8.341442801957008 -12.88103900676141 3.5095516683197756
ltibia 31.366351820844375
lfoot 52.49775133716159 2.782527877702354
ltoes 4.47688
2414
root 11.1529 4.15172 10.6304 -82.5439 2.91446 168.791
lowerback -11.757378067904053 -2.9317429942635003 -4.625272734425753
upperback -9.421028441909861 -10.285860437567862 11.481794375152894
thorax -3.0529269788525477 -5.373310198893636 10.593882057917769
lowerneck -4.516881809624548 -16.970576565514776 14.553013694520535
upperneck -30.426038061617437 -24.50403754219015 1.152468447633129
head -11.142998315113797 -6.978995994511556 -1.8965908141732752
rclavicle 2.38542e-15 -1.58034e-14
rhumerus -10.34610838481718 -15.425757546104048 47.28755119711997
rradius 37.20784611506943
rwrist -27.297081518581876
rhand -27.11685740771717 -35.76466291653527
rfingers 6.231459377701807
rthumb 6.810903694968417 -70.26725057693349
lclavicle 2.38542e-15 -1.58034e-14
lhumerus -18.7782819012497 10.363219710663897 -56.93948707698489
lradius 52.561810675537494
lwrist 29.15298844545403
lhand -14.255869060171683 -30.25205185635662
lfingers 10.651532202604873
lthumb 8.193653768678846 -5.788799397175345
rfemur 2.7405823950777357 2.3477567918475257 -1.2832893948094197
rtibia 60.53295271587459
rfoot 10.171424256063293 -11.494379317750397
rtoes 36.50898749001823
lfemur -7.984345203500402 -12.39295199152496 3.9568625824937906
ltibia 31.688329091545096
lfoot 52.480680855518436 2.3597592826623166
ltoes 4.47688
